<svg width="90" height="90" viewBox="0 0 90 90" fill="none" xmlns="http://www.w3.org/2000/svg">
<rect width="90" height="90" rx="10" fill="url(#paint0_linear_634_2034)"/>
<path d="M53.2422 31.4L50.2022 75.8C50.1489 76.6 49.8555 77 49.3222 77H44.9222C41.9355 77 39.8022 76.4133 38.5222 75.24C37.2422 74.0667 36.6022 72.3867 36.6022 70.2C36.6022 69.4 36.6289 68.2 36.6822 66.6C36.7889 65 36.9222 63.1333 37.0822 61C37.2422 58.8133 37.4022 56.4667 37.5622 53.96C37.7755 51.4 37.9889 48.84 38.2022 46.28C38.4155 43.6667 38.6022 41.08 38.7622 38.52C38.9755 35.96 39.1622 33.5867 39.3222 31.4H26.5222C25.9355 31.4 25.6422 31.0267 25.6422 30.28L25.8822 25.8C25.9355 25.1067 26.0422 24.44 26.2022 23.8C26.4155 23.1067 26.7355 22.4933 27.1622 21.96C27.5889 21.4267 28.1222 21 28.7622 20.68C29.4555 20.36 30.2822 20.2 31.2422 20.2H67.0022C67.3222 20.2 67.6155 20.28 67.8822 20.44C68.1489 20.6 68.2822 20.8933 68.2822 21.32L67.9622 26.04C67.8555 27.64 67.4022 28.9467 66.6022 29.96C65.8555 30.92 64.2822 31.4 61.8822 31.4H53.2422Z" fill="#DAD5FB"/>
<path d="M53.2422 31.4V29.4H51.3744L51.2469 31.2634L53.2422 31.4ZM50.2022 75.8L48.2069 75.6634L48.2066 75.667L50.2022 75.8ZM38.5222 75.24L39.8736 73.7657L39.8736 73.7657L38.5222 75.24ZM36.6822 66.6L34.6866 66.467L34.6844 66.5001L34.6833 66.5334L36.6822 66.6ZM37.0822 61L39.0766 61.1496L39.0769 61.146L37.0822 61ZM37.5622 53.96L35.5691 53.7939L35.5675 53.8132L35.5662 53.8326L37.5622 53.96ZM38.2022 46.28L40.1953 46.4461L40.1956 46.4427L38.2022 46.28ZM38.7622 38.52L36.7691 38.3539L36.7674 38.3746L36.7661 38.3952L38.7622 38.52ZM39.3222 31.4L41.3169 31.5459L41.4739 29.4H39.3222V31.4ZM25.6422 30.28L23.6451 30.173L23.6422 30.2265V30.28H25.6422ZM25.8822 25.8L23.8881 25.6466L23.8863 25.6698L23.8851 25.693L25.8822 25.8ZM26.2022 23.8L24.2906 23.2118L24.2749 23.263L24.2619 23.3149L26.2022 23.8ZM28.7622 20.68L27.9241 18.8641L27.8957 18.8772L27.8678 18.8911L28.7622 20.68ZM67.8822 20.44L66.8532 22.155L66.8532 22.155L67.8822 20.44ZM68.2822 21.32L70.2776 21.4553L70.2822 21.3877V21.32H68.2822ZM67.9622 26.04L65.9668 25.9047L65.9666 25.907L67.9622 26.04ZM66.6022 29.96L65.0324 28.7207L65.0279 28.7264L65.0235 28.7321L66.6022 29.96ZM51.2469 31.2634L48.2069 75.6634L52.1975 75.9366L55.2375 31.5366L51.2469 31.2634ZM48.2066 75.667C48.1911 75.8996 48.1523 75.7588 48.3294 75.5173C48.4333 75.3756 48.5922 75.2282 48.8061 75.1247C49.0149 75.0236 49.2024 75 49.3222 75V79C50.1701 79 50.9997 78.6399 51.555 77.8827C52.0255 77.2412 52.1599 76.5004 52.1978 75.933L48.2066 75.667ZM49.3222 75H44.9222V79H49.3222V75ZM44.9222 75C42.1041 75 40.5973 74.429 39.8736 73.7657L37.1707 76.7143C39.0071 78.3977 41.7669 79 44.9222 79V75ZM39.8736 73.7657C39.109 73.0647 38.6022 71.9814 38.6022 70.2H34.6022C34.6022 72.792 35.3754 75.0686 37.1707 76.7143L39.8736 73.7657ZM38.6022 70.2C38.6022 69.4346 38.6279 68.2617 38.6811 66.6666L34.6833 66.5334C34.6298 68.1383 34.6022 69.3654 34.6022 70.2H38.6022ZM38.6778 66.733C38.784 65.14 38.9169 63.2791 39.0766 61.1496L35.0878 60.8504C34.9275 62.9876 34.7937 64.86 34.6866 66.467L38.6778 66.733ZM39.0769 61.146C39.2374 58.9523 39.3978 56.5994 39.5581 54.0874L35.5662 53.8326C35.4066 56.3339 35.247 58.6744 35.0875 60.854L39.0769 61.146ZM39.5553 54.1261C39.7686 51.5661 39.9819 49.0061 40.1953 46.4461L36.2091 46.1139C35.9958 48.6739 35.7824 51.2339 35.5691 53.7939L39.5553 54.1261ZM40.1956 46.4427C40.4099 43.817 40.5975 41.2177 40.7583 38.6448L36.7661 38.3952C36.6069 40.9423 36.4211 43.5163 36.2088 46.1173L40.1956 46.4427ZM40.7553 38.6861C40.9691 36.1205 41.1563 33.7403 41.3169 31.5459L37.3275 31.254C37.1681 33.433 36.982 35.7995 36.7691 38.3539L40.7553 38.6861ZM39.3222 29.4H26.5222V33.4H39.3222V29.4ZM26.5222 29.4C26.5845 29.4 26.7319 29.4097 26.9183 29.4888C27.1168 29.5731 27.2982 29.7104 27.4348 29.8844C27.684 30.2014 27.6422 30.4459 27.6422 30.28H23.6422C23.6422 30.8608 23.7471 31.6652 24.2896 32.3556C24.9042 33.1379 25.7748 33.4 26.5222 33.4V29.4ZM27.6393 30.387L27.8793 25.907L23.8851 25.693L23.6451 30.173L27.6393 30.387ZM27.8763 25.9534C27.9215 25.3659 28.0111 24.8105 28.1425 24.2851L24.2619 23.3149C24.0733 24.0695 23.9496 24.8474 23.8881 25.6466L27.8763 25.9534ZM28.1137 24.3882C28.2577 23.9202 28.464 23.5343 28.7239 23.2094L25.6005 20.7106C25.0071 21.4524 24.5733 22.2931 24.2906 23.2118L28.1137 24.3882ZM28.7239 23.2094C28.9612 22.9128 29.2628 22.6657 29.6566 22.4688L27.8678 18.8911C26.9815 19.3343 26.2165 19.9405 25.6005 20.7106L28.7239 23.2094ZM29.6003 22.4959C29.9724 22.3242 30.4994 22.2 31.2422 22.2V18.2C30.065 18.2 28.9387 18.3958 27.9241 18.8641L29.6003 22.4959ZM31.2422 22.2H67.0022V18.2H31.2422V22.2ZM67.0022 22.2C66.9938 22.2 66.9696 22.1987 66.936 22.1895C66.902 22.1803 66.8732 22.167 66.8532 22.155L68.9112 18.725C68.3244 18.3729 67.6737 18.2 67.0022 18.2V22.2ZM66.8532 22.155C66.6256 22.0185 66.4562 21.816 66.3615 21.6076C66.2783 21.4246 66.2822 21.304 66.2822 21.32H70.2822C70.2822 20.4831 69.9945 19.375 68.9112 18.725L66.8532 22.155ZM66.2868 21.1847L65.9668 25.9047L69.9576 26.1753L70.2776 21.4553L66.2868 21.1847ZM65.9666 25.907C65.8803 27.202 65.5272 28.094 65.0324 28.7207L68.172 31.1993C69.2772 29.7993 69.8308 28.078 69.9578 26.173L65.9666 25.907ZM65.0235 28.7321C64.897 28.8947 64.2106 29.4 61.8822 29.4V33.4C64.3537 33.4 66.814 32.9452 68.1809 31.1879L65.0235 28.7321ZM61.8822 29.4H53.2422V33.4H61.8822V29.4Z" fill="#CCCDFF" fill-opacity="0.4"/>
<defs>
<linearGradient id="paint0_linear_634_2034" x1="45" y1="0" x2="45" y2="90" gradientUnits="userSpaceOnUse">
<stop stop-color="#373067"/>
<stop offset="1" stop-color="#AB6684"/>
</linearGradient>
</defs>
</svg>
