<svg width="1920" height="1080" viewBox="0 0 1920 1080" fill="none" xmlns="http://www.w3.org/2000/svg">
<g clip-path="url(#clip0_390_2018)">
<rect width="1920" height="1080" fill="url(#paint0_linear_390_2018)"/>
<path d="M27 872.5V1080H184.5V1017.5H154.5V872.5H27Z" fill="#97829B"/>
<path d="M233.5 980.5V1080H417V946H327V980.5H233.5Z" fill="#97829B"/>
<path d="M496.5 1017.5V1080H646V874.5H525.5V1017.5H496.5Z" fill="#97829B"/>
<path d="M737 1057L725.5 1080H892L875 1057H737Z" fill="#97829B"/>
<path d="M1046.5 843V1080H1887V942.5H1827.5V730H1749.5V767H1704.5V916H1610.5V819.5H1574V857.5H1519.5V982H1444.5V1024.5H1408V1049.5H1362.5V730.5H1278.5V815H1238.5V958.5H1168.5V905.5H1130V843H1046.5Z" fill="#97829B"/>
<path d="M27 872.5V1080H184.5V1017.5H154.5V872.5H27Z" stroke="black"/>
<path d="M233.5 980.5V1080H417V946H327V980.5H233.5Z" stroke="black"/>
<path d="M496.5 1017.5V1080H646V874.5H525.5V1017.5H496.5Z" stroke="black"/>
<path d="M737 1057L725.5 1080H892L875 1057H737Z" stroke="black"/>
<path d="M1046.5 843V1080H1887V942.5H1827.5V730H1749.5V767H1704.5V916H1610.5V819.5H1574V857.5H1519.5V982H1444.5V1024.5H1408V1049.5H1362.5V730.5H1278.5V815H1238.5V958.5H1168.5V905.5H1130V843H1046.5Z" stroke="black"/>
<path d="M737 1055L724 1079.5H893.5L875 1055H737Z" fill="#2F1F31"/>
<path fill-rule="evenodd" clip-rule="evenodd" d="M27 872V1079.5H185.5V1015.5H155V872H27ZM45 923.5H69.5V897.5H45V923.5ZM45 1039V1012.5H69.5V1039H45ZM121 980.5H146V1006H121V980.5ZM146 1012.5H121V1039H146V1012.5Z" fill="#2F1F31"/>
<path fill-rule="evenodd" clip-rule="evenodd" d="M233 1079.5V980.5H326V945.5H418V1079.5H233ZM251.5 1019V993.5H274V1019H251.5ZM283.5 993.5V1019H306V993.5H283.5ZM315.5 1019V993.5H338.5V1019H315.5Z" fill="#2F1F31"/>
<path fill-rule="evenodd" clip-rule="evenodd" d="M495 1016V1079.5H648.5V872.5H524V1016H495ZM549.5 916.5V942H572V916.5H549.5ZM616.5 942V916.5H639.5V942H616.5Z" fill="#2F1F31"/>
<path fill-rule="evenodd" clip-rule="evenodd" d="M1045 839.5V1079.5H1717.5V1070.5H1739.5V1079.5H1887V1071H1863.5V1047H1887V1019.5H1865V997H1887V937.5H1831V726H1746V764H1700.5V910.5H1614.5V816.5H1571V855.5H1516.5V979H1442.5V1020.5H1405.5V1046.5H1365V727H1276V810.5H1236V954H1171.5V902H1132.5V839.5H1045ZM1058.5 884.5V860.5H1116.5V884.5H1058.5ZM1058.5 914V891.5H1116.5V914H1058.5ZM1141 984V961.5H1164.5V984H1141ZM1141 1038.5V1016.5H1164.5V1038.5H1141ZM1330 763V740.5H1353V763H1330ZM1294.5 827.5V805H1317.5V827.5H1294.5ZM1294.5 862V840.5H1317.5V862H1294.5ZM1330 984.5V961.5H1353V984.5H1330ZM1330 1038.5V1016H1353V1038.5H1330ZM1413.5 1057.5V1034.5H1435.5V1057.5H1413.5ZM1487 1019V997H1513V1019H1487ZM1487 1057.5V1034.5H1513V1057.5H1487ZM1531.5 898V875H1554.5V898H1531.5ZM1586 961.5V938.5H1609.5V961.5H1586ZM1666 961.5V938.5H1688.5V961.5H1666ZM1797 859V834H1820.5V859H1797ZM1797 913.5V891H1820.5V913.5H1797ZM1756 948V923.5H1779V948H1756ZM1797 987.5V961.5H1820.5V987.5H1797ZM1627.5 1052V1029H1650.5V1052H1627.5ZM1666 1052V1029H1688.5V1052H1666Z" fill="#2F1F31"/>
<path d="M1887 1019.5H1865V997H1887M1887 1019.5V997M1887 1019.5V1047M1887 997V937.5H1831V726H1746V764H1700.5V910.5H1614.5V816.5H1571V855.5H1516.5V979H1442.5V1020.5H1405.5V1046.5H1365V727H1276V810.5H1236V954H1171.5V902H1132.5V839.5H1045V1079.5H1717.5M1887 1047H1863.5V1071H1887M1887 1047V1071M1887 1071V1079.5H1739.5M1717.5 1079.5V1070.5H1739.5V1079.5M1717.5 1079.5H1739.5M27 1079.5V872H155V1015.5H185.5V1079.5H27ZM45 1012.5V1039H69.5V1012.5H45ZM45 923.5H69.5V897.5H45V923.5ZM121 980.5H146V1006H121V980.5ZM121 1012.5H146V1039H121V1012.5ZM233 1079.5V980.5H326V945.5H418V1079.5H233ZM251.5 993.5V1019H274V993.5H251.5ZM283.5 993.5V1019H306V993.5H283.5ZM315.5 993.5V1019H338.5V993.5H315.5ZM495 1079.5V1016H524V872.5H648.5V1079.5H495ZM549.5 916.5V942H572V916.5H549.5ZM616.5 916.5V942H639.5V916.5H616.5ZM724 1079.5L737 1055H875L893.5 1079.5H724ZM1058.5 860.5V884.5H1116.5V860.5H1058.5ZM1058.5 891.5V914H1116.5V891.5H1058.5ZM1141 961.5V984H1164.5V961.5H1141ZM1141 1016.5V1038.5H1164.5V1016.5H1141ZM1330 740.5V763H1353V740.5H1330ZM1294.5 805V827.5H1317.5V805H1294.5ZM1294.5 840.5V862H1317.5V840.5H1294.5ZM1330 961.5V984.5H1353V961.5H1330ZM1330 1016V1038.5H1353V1016H1330ZM1413.5 1034.5V1057.5H1435.5V1034.5H1413.5ZM1487 997V1019H1513V997H1487ZM1487 1034.5V1057.5H1513V1034.5H1487ZM1531.5 875V898H1554.5V875H1531.5ZM1586 938.5V961.5H1609.5V938.5H1586ZM1666 938.5V961.5H1688.5V938.5H1666ZM1797 834V859H1820.5V834H1797ZM1797 891V913.5H1820.5V891H1797ZM1756 923.5V948H1779V923.5H1756ZM1797 961.5V987.5H1820.5V961.5H1797ZM1627.5 1029V1052H1650.5V1029H1627.5ZM1666 1029V1052H1688.5V1029H1666Z" stroke="black"/>
<path d="M98.5 506.5C98.5 487.5 123.5 489 123.5 506.5C123.5 524 98.5 523.5 98.5 506.5Z" fill="#FFEFA2"/>
<path d="M335.5 257C335.5 238 360.5 239.5 360.5 257C360.5 274.5 335.5 274 335.5 257Z" fill="#FFEFA2"/>
<path d="M443 318C443 311 454.5 310.5 454.5 318C454.5 325.5 443 326 443 318Z" fill="#FFEFA2"/>
<path d="M463.5 622C463.5 615 475 614.5 475 622C475 629.5 463.5 630 463.5 622Z" fill="#FFEFA2"/>
<path d="M1179.5 257C1179.5 238 1204.5 239.5 1204.5 257C1204.5 274.5 1179.5 274 1179.5 257Z" fill="#FFEFA2"/>
<path d="M586 142.5C586 135.5 597.5 135 597.5 142.5C597.5 150 586 150.5 586 142.5Z" fill="#FFEFA2"/>
<path d="M932 194.5C932 187.5 943.5 187 943.5 194.5C943.5 202 932 202.5 932 194.5Z" fill="#FFEFA2"/>
<path d="M1067.5 353C1067.5 346.5 1077 346.5 1077 353C1077 359.5 1067.5 360 1067.5 353Z" fill="#FFEFA2"/>
<path d="M914 569.5C914 563 923.5 563 923.5 569.5C923.5 576 914 576.5 914 569.5Z" fill="#FFEFA2"/>
<path d="M1094 631.5C1094 625 1103.5 625 1103.5 631.5C1103.5 638 1094 638.5 1094 631.5Z" fill="#FFEFA2"/>
<path d="M1372 384C1372 377.5 1381.5 377.5 1381.5 384C1381.5 390.5 1372 391 1372 384Z" fill="#FFEFA2"/>
<path d="M1422.5 107.5C1422.5 101 1432 101 1432 107.5C1432 114 1422.5 114.5 1422.5 107.5Z" fill="#FFEFA2"/>
<path d="M1588 715.5C1588 709 1597.5 709 1597.5 715.5C1597.5 722 1588 722.5 1588 715.5Z" fill="#FFEFA2"/>
<path d="M1825.5 560C1825.5 553.5 1835 553.5 1835 560C1835 566.5 1825.5 567 1825.5 560Z" fill="#FFEFA2"/>
<path d="M768 340C768 321 793 322.5 793 340C793 357.5 768 357 768 340Z" fill="#FFEFA2"/>
</g>
<defs>
<linearGradient id="paint0_linear_390_2018" x1="960" y1="0" x2="960" y2="1080" gradientUnits="userSpaceOnUse">
<stop stop-color="#373067"/>
<stop offset="1" stop-color="#AB6684"/>
</linearGradient>
<clipPath id="clip0_390_2018">
<rect width="1920" height="1080" fill="white"/>
</clipPath>
</defs>
</svg>
